<!-- Generated by IcoMoon.io -->
<svg version="1.1" xmlns="http://www.w3.org/2000/svg" width="1024" height="1024" viewBox="0 0 1024 1024">
<title></title>
<g id="icomoon-ignore">
</g>
<path d="M294.176 641.184c-40 0-45.312-18.688-45.312-18.688l-156 306.56 125.088-14.016 69.184 104c0 0 144-300.576 144-298.56-74.56-1.792-44.96-77.28-136.96-79.296zM645.824 674.080c19.424-32.64 48.128-49.184 86.112-49.696 37.952-0.512 57.184-19.744 57.696-57.728 0.512-37.952 17.056-66.656 49.696-86.048s39.68-45.696 21.12-78.816-18.56-66.272 0-99.392 11.488-59.392-21.12-78.816-49.184-48.096-49.696-86.080c-0.512-37.952-19.744-57.184-57.696-57.696-38.016-0.512-66.688-17.056-86.112-49.696-19.36-32.64-45.696-39.68-78.816-21.12s-66.24 18.56-99.36 0-59.392-11.488-78.816 21.12c-19.424 32.64-48.096 49.184-86.080 49.696-37.952 0.544-57.184 19.776-57.696 57.728-0.512 37.984-17.056 66.656-49.696 86.080s-39.68 45.696-21.12 78.816c18.56 33.12 18.56 66.272 0 99.392s-11.488 59.392 21.12 78.816c32.64 19.424 49.184 48.128 49.696 86.048 0.512 37.984 19.744 57.216 57.696 57.728 37.984 0.512 66.656 17.056 86.080 49.696 19.392 32.64 45.696 39.648 78.816 21.12s66.24-18.528 99.36 0 59.424 11.488 78.816-21.152zM560.576 512.128h-56.992v-215.232c-20.832 19.488-45.44 33.888-73.76 43.232v-51.744c14.88-4.864 31.072-14.080 48.544-27.68s29.44-29.44 35.936-47.552h46.272v298.976zM773.12 634.496c-113.984 12-90.816 40.192-116.8 62.176-30.016 32-67.424 25.824-67.424 25.824l176 302.56 43.2-112 123.072 16-158.048-294.56z"></path>
</svg>
